<svg xmlns="http://www.w3.org/2000/svg" aria-hidden="true" style="width:0;height:0;position:absolute;overflow:hidden"><defs><symbol id="logo" viewBox="0 0 40 32"><path fill="none" stroke="#fff" style="stroke:var(--color1,#fff)" stroke-linejoin="round" stroke-linecap="round" stroke-width=".868" d="M35.258 12.94a5.242 5.242 0 1 1-10.484 0 5.242 5.242 0 0 1 10.484 0z"/><path fill="#fff" style="fill:var(--color1,#fff)" d="M21.497 10.443a.114.114 0 0 0-.042.009c-.272.1-.784.336-.96.457s-.324.264-.389.472c-.065.208.002.449.126.606s.288.269.489.373c.806.418 2.299.723 4.451.931a49.28 49.28 0 0 0 3.301.198l-.004-.036c-.003-.027-.085-.041-.088-.068-.004-.032-.014-.059-.018-.091-.004-.036.023-.085.019-.121-.005-.04-.023-.085-.03-.125s-.032-.102-.035-.142c-.002-.032.021-.058.022-.09.001-.013-.036-.083-.034-.096-1.089-.031-2.064-.02-3.066-.117-2.114-.204-3.6-.545-4.198-.856a.885.885 0 0 1-.252-.178c.006-.007.014-.031.099-.089.104-.071.277-.159.514-.245a.536.536 0 0 0 .172-.084c.09-.083.06-.317.051-.443-.011-.143-.038-.266-.126-.264zM36.549 10.035c-.187.012-.438.301-.464.478-.028.189.209.179.398.208.903.135 1.61.294 2.102.457.464.154.706.335.752.386-.014.018-.037.054-.135.116-.235.147-.724.329-1.434.49-1.648.373-3.492.537-6.151.579 0 .018.056.07.056.088-.001.165.144.072.139.237-.002.015.002.123 0 .139-.007.047-.006.199-.024.221 2.705-.038 4.386-.193 6.133-.589.749-.17 1.283-.35 1.648-.579.182-.114.333-.242.421-.431s.067-.442-.039-.615c-.213-.346-.596-.514-1.148-.698s-1.29-.346-2.218-.485a.145.145 0 0 0-.036-.001z"/><path fill="#fff" style="fill:var(--color1,#fff)" d="M35.786 9.911a26.79 26.79 0 0 1-.717.434c-.418.246-.572.351-.886.534-.275.16-.715.429-.981.604-.179.118-.305.198-.431.279-.078.051-.067.11.024.127l.086.015c.406.066 1.046-.175 1.426-.343.394-.175.734-.32 1.146-.563a9.702 9.702 0 0 0 1.266-.889c.178-.147.548-.42.479-.619-.023-.065-.126-.177-.236-.189h-.002c-.364-.037-.863.414-1.175.611zM24.236 9.911c.196.124.397.245.717.434.418.246.572.351.886.534.275.16.715.429.981.604.179.118.305.198.43.279.078.051.067.11-.024.127l-.086.015c-.406.066-1.046-.175-1.426-.343-.394-.175-.734-.32-1.146-.563a9.702 9.702 0 0 1-1.266-.889c-.178-.147-.548-.42-.479-.619.023-.065.126-.177.236-.189h.002c.364-.037.863.414 1.175.611z"/><path fill="none" stroke="#fff" style="stroke:var(--color1,#fff)" stroke-linejoin="round" stroke-linecap="round" stroke-width=".581" d="m24.888 15.008-1.627.859M35.057 15.008l1.627.859M31.811 12.958a1.848 1.848 0 1 1-3.696 0 1.848 1.848 0 0 1 3.696 0z"/><path fill="none" stroke="#fff" style="stroke:var(--color1,#fff)" stroke-linejoin="round" stroke-linecap="round" stroke-width=".624" d="m30.019 7.836.006 3.513M30.019 14.77l.006 3.513"/><path fill="#fff" style="fill:var(--color1,#fff)" d="M8.996 13.163c-.234.018.134 1.815.152 2.05.035.453.069.899.082 1.331s.004.851-.036 1.283c-.04.432-.111.883-.194 1.283s-.168.707-.353 1.034c-.186.327-.488.688-.862.986s-.827.544-1.448.776c-.622.233-1.417.452-2.219.672-.227.062-.643.05-.581.276s.242.094.469.032c.4-.11.871-.161 1.337-.211.729-.079 1.894-.384 2.503-.789.232-.155.921-.701 1.309-1.376.008-.014.291-.532.462-1.211.037-.147.155-.747.213-1.347.011-.119.051-.698.029-1.292l-.011-.302c-.013-.459-.098-1.003-.133-1.456-.018-.234-.483-1.756-.717-1.738zM22.724 22.505c-.096-.031-.116-.116-.205-.07-.341.174-.589.296-.927.523s-.645.495-.919.778c-.274.283-.519.587-.757.875s-.486.584-.725.87c-.24.286-.465.555-.725.832s-.553.561-.868.821c-.315.26-.656.5-1.005.706-.144.085-.308.182-.476.279-.383.219-1.035.514-1.449.666-.329.121-1.009.35-1.533.445-.424.076-.906.137-1.533.232.963.072 1.56.037 2.081-.03.466-.06 1.209-.226 1.648-.393.146-.056.649-.262 1.107-.491a5.26 5.26 0 0 0 .311-.168c.386-.227.758-.489 1.104-.775s.66-.591.938-.887.514-.578.753-.864c.24-.286.489-.583.73-.875s.475-.581.717-.831.512-.484.797-.676.394-.265.735-.438c.435-.222.81-.052.455-.358-.046-.09-.156-.14-.252-.171z"/><path fill="#fff" style="fill:var(--color1,#fff)" d="M3.192 25.581c-.138.007-.706.035-.894.087-.526.145-.752.254-1.105.62s-.404.737-.425 1.203c-.02.465-.369.93-.122 1.326s.848 1.037 1.271 1.293c.424.257 1.107.577 1.68.705s1.486.187 2.088.209 1.144-.062 1.693-.088c.531-.026 1.204-.062 3.225-.556.442-.108-1.113-.071-2.29-.03-.66.023-1.732.06-2.392.036a11.093 11.093 0 0 1-1.374-.12c-.416-.072-1.131-.225-1.565-.41-.256-.109-.795-.41-1.088-.765a2.612 2.612 0 0 1-.387-.788c-.075-.267-.067-.742.038-1.016l.008-.021c.09-.226.367-.523.57-.66.041-.028.084-.055.128-.081.282-.165.817-.257 1.144-.246.452.015 1.203.178 1.676.308l.019.005c.545.151 1.405.476 1.929.689.416.169 1.123.442 1.585.596.443.147 1.265.394 1.842.513.042.009.518.126 1.075.158.529.031 1.333.032 2.573-.05-1.618-.063-3.113-.498-3.318-.539-.369-.073-.742-.262-1.197-.388s-.938-.381-1.495-.593c-.557-.212-1.151-.466-1.731-.684s-1.154-.481-1.728-.595a6.705 6.705 0 0 0-1.435-.115z"/><path fill="#fff" style="fill:var(--color1,#fff)" d="M22.102 22.275c-.167-.014-.169-.113-.298-.005-.333.28-.657.553-.977.791s-.662.585-1.077.927c-.415.341-.848.626-1.226.906s-.771.488-1.208.684-.888.367-1.332.483c-.444.116-.903.184-1.329.205s-.799-.001-1.269-.098c-.471-.097-1.04-.274-1.509-.479s-.875-.452-1.307-.711-.859-.511-1.226-.731c-.367-.221-.707-.432-1.083-.631s-.774-.377-1.226-.557c-.452-.18-.974-.369-1.528-.497s-1.124-.192-1.697-.155c-.572.037-1.136.172-1.641.428s-.914.616-1.238 1.003-.577.811-.728 1.251c-.151.44-.18.845-.193 1.143s-.027.78.064 1.252c.095.493.177.612.425 1.087.32.604.58.804.828.378.329-.117.007-.227-.11-.556a3.674 3.674 0 0 1-.148-.581c-.061-.337-.179-.88-.25-1.215a3.56 3.56 0 0 1-.023-1.012c.028-.202.186-.697.419-1.058a4.37 4.37 0 0 1 .907-.916c.148-.109.683-.379 1.217-.465.167-.027.776-.07 1.35-.008.27.029.979.193 1.564.407.17.062.702.282 1.166.532.145.078.598.281.988.498.085.047.64.37 1.24.72.158.092.777.522 1.438.857.148.075.814.385 1.522.586.257.073 1.07.256 1.816.245a7.292 7.292 0 0 0 1.405-.17c.288-.068.905-.258 1.376-.426.283-.101.879-.431 1.345-.697.323-.184.865-.596 1.228-.89.129-.105.249-.191.454-.303.402-.219.815-.58 1.177-.849s.478-.336.811-.616c.267-.225.606-.206.381-.473-.108-.128-.332-.271-.499-.285zM9.627 14.51a.631.631 0 0 0-.391.803c.303.878.604 1.779 1.036 2.507s.965 1.198 1.416 1.497.85.446 1.179.566c.572.195 1.124.36 1.04-.603.045-2.244-.094-1.103-.422-1.224-.329-.121-.37-.181-.7-.4s-.763-.091-1.086-.636c-.323-.545-.966-1.241-1.268-2.119a.632.632 0 0 0-.803-.392z"/><path fill="#fff" style="fill:var(--color1,#fff)" d="M14.398 17.935a.425.425 0 0 0-.368.476c.052.407.107.86.298 1.339s.501.949.904 1.338c.403.389.902.692 1.494.858s1.232.195 1.852.215 1.23.03 1.698.066c.468.036.852.06 1.131.159s.654.151.94.32c.374.209 1.382.499 1.196.356a50.999 50.999 0 0 0-.552-.42c-.311-.232-.85-.561-1.208-.71a4.236 4.236 0 0 0-1.267-.247c-.284-.006-.984-.057-1.564-.083-.29-.013-1.071-.036-1.717-.193-.217-.053-.969-.201-1.456-.648-.023-.021-.383-.284-.627-.712a5.654 5.654 0 0 1-.373-.944c-.007-.026-.015-.051-.021-.077-.045-.171-.075-.456-.101-.631-.036-.236-.103-.482-.258-.463z"/><path fill="none" stroke="#fff" style="stroke:var(--color1,#fff)" stroke-linejoin="round" stroke-linecap="round" stroke-width=".649" d="M18.127 5.844c.05.516.1 1.033.156 1.49s.118.854.16 1.222c.042.367.063.71.066 1.018s-.015.585-.067.889c-.052.304-.138.637-.2.933s-.102.565-.104.818c-.003.254.031.494-.015.806s-.175.7-.315 1.089c-.139.389-.296.798-.452 1.167s-.31.697-.478 1.012c-.168.316-.353.623-.552.902s-.417.536-.708.704c-.292.168-.659.25-1.011.249s-.69-.085-1.036-.209c-.347-.124-.716-.292-1.061-.49s-.678-.433-.972-.693c-.293-.26-.553-.551-.782-.849s-.429-.608-.609-.935c-.179-.327-.338-.672-.46-1.004s-.208-.652-.286-.975c-.078-.323-.147-.65-.193-.995s-.068-.708-.091-1.071"/><path fill="#fff" style="fill:var(--color1,#fff)" d="M27.244 20.235a3.495 3.495 0 0 0-.684.266c-.264.149-.405.207-.71.438-.298.225-.55.51-.755.841s-.339.669-.436.922-.118.337-.269.506c-.151.169-.493.448-.844.735s-.704.584-1.072.896c-.368.312-.757.642-1.129.973s-.729.665-1.095 1.009c-.366.345-.747.705-1.097 1.038s-.661.656-.971.934c-.31.278-.57.524-.858.82-1.089 1.119-1.798 1.566-2.295 2.078.262-.046 1.126-.648 1.749-1.106.37-.272.966-.717 1.329-.998.191-.147.676-.562 1.09-.918.197-.169.701-.648 1.136-1.059.17-.16.658-.624 1.1-1.027.155-.142.56-.501.908-.799.267-.229.753-.64 1.084-.918.253-.212.701-.569.987-.813.245-.21.617-.607.738-.916.049-.126.166-.46.298-.73.072-.147.277-.546.538-.823.055-.058.278-.263.506-.448.15-.122.466-.324.702-.449.489-.259 1.19-.583 1.003-.496-.062-.109-.826.006-.956.043zM34.553 18.413c-.35.254-.692.463-1.074.691-.388.23-.769.439-1.184.643s-.838.447-1.161.554c-.323.107-.633.259-.944.291s-.592.111-.977.133c-.261.015-.298.008-.283.268s-.084.365.176.35c.386-.022.904-.079 1.244-.144.352-.067.716-.162 1.105-.291s.61-.239 1.052-.456c.191-.094 1.209-.656 1.393-.756-.196.259-.906 1.308-1.088 1.513-.291.328-.542.558-.883.768s-.809.418-1.309.594c-.5.176-1.049.329-1.572.48s-1.029.3-1.522.536c-.494.236-.958.552-1.395.964s-.837.908-1.196 1.409-.675 1.012-.983 1.556c-.309.544-.61 1.124-.882 1.655s-.518 1.023-.699 1.388c-.18.366-.295.606-.408.843-.112.236-.285.409.039.532.292.104.409.074.474-.014.135-.182.244-.542.344-.746l.215-.433c.178-.36.375-.7.645-1.226s.693-1.247.99-1.771c.297-.524.595-1.004.93-1.473s.705-.921 1.075-1.271c.37-.349.748-.605 1.154-.799s.861-.332 1.377-.481c.516-.149 1.082-.305 1.624-.496s1.061-.416 1.492-.682c.431-.266.766-.577 1.092-.944s.67-.814.991-1.267c.16-.226.317-.456.437-.658.06-.101.19-.24.231-.34s.368-.48.388-.879c.018-.347-.16-.398-.326-.369-.169.03-.401.196-.583.328z"/><path fill="#fff" style="fill:var(--color1,#fff)" d="m30.066 19.821-.228.204c-.224.196-.374.328-.632.502-.176.118-.46.31-.628.439l-.026.02c-.176.135-.447.372-.578.551-.107.147-.175.292-.109.394.048.075.157.039.281-.036.271-.165.696-.451.994-.559.09-.033.369-.215.627-.391l.047-.032a2.173 2.173 0 0 0 .49-.458l-.008.01c.152-.191.471-.556.661-.851.072-.112.103-.208.049-.281-.098-.137-.444.078-.596.192-.049.036-.203.17-.345.297zM6.322 11.608c-.618-.002-1.211.221-1.631.699-.839.955-.53 2.41.505 3.262s2.569.913 3.409-.042c.839-.955.218-4.541-.296-4.483-.241.027-.6.939-.813.838l.826.362c-.084-.116-.068-.769-.078-.865-.011-.109-.746.09-.876.136-.062.022.689-.395.195-.467-.352-.154-.875.562-1.24.561zm1.999.634c.012.016.099.757.112.763.112.046.262-.592.486-.5zm-2.032-.041c.8-.008 1.963.962 2.097 1.73.083.476-.086.901-.338 1.216-.342.427-1.307.53-1.808.287-.38-.184-1.092-.627-1.332-1.117a1.538 1.538 0 0 1-.134-.942c.048-.291.291-.732.544-.892.249-.157.59-.278.971-.282z"/><path fill="#fff" style="fill:var(--color1,#fff)" d="M5.248 13.872a8.052 8.052 0 0 0-.388.027.21.21 0 1 0 .035.419c.098-.008.186-.018.269-.023.202-.014.527.07.7.175.103.063.3.218.418.363.044.054.177.217.236.39.015.045.07.271.065.505l-.001.038c.006.116.233.152.349.146s.205-.106.199-.222c-.011-.191-.02-.393-.067-.588s-.131-.372-.253-.536c-.122-.163-.284-.32-.482-.443s-.429-.209-.688-.239a2.551 2.551 0 0 0-.391-.012zM8.003 10.805c-.09.005-.18.017-.267.032-.35.061-.698.189-.995.309a13.67 13.67 0 0 0-1.431.686c-.164.088-.226.292-.139.456s.124-.088.289-.175c.41-.219.971-.115 1.533-.341.281-.113.597-.225.859-.27s.435-.011.498.04c.063.052.159.256.198.582s.039.746.036 1.175a.337.337 0 0 0 .674.004c.003-.429.007-.867-.041-1.261s-.134-.77-.439-1.021c-.229-.189-.504-.232-.774-.216zM12.759 0a7.28 7.28 0 0 0-.933.049c-.638.075-1.292.239-1.896.477s-1.155.549-1.638.895c-.482.346-.903.732-1.29 1.18s-.75.968-1.026 1.529c-.276.561-.353 1.056-.527 1.613-.076.244.092.072.336.149s.532-.018.608-.262c.174-.556.342-1.089.576-1.564.051-.104.107-.208.166-.31.346-.602 1.092-1.464 1.639-1.892a7.626 7.626 0 0 1 1.115-.706c.293-.148.97-.431 1.528-.562.369-.086 1.096-.125 1.607-.078.276.025.96.11 1.505.268.195.057.618.208.936.354a5.11 5.11 0 0 1 .566.303c.294.188.725.559 1.013.757.704.482-.178-.335.183.045.176.186.067-.533-.14-.684-.267-.195-.546-.4-.872-.598a6.474 6.474 0 0 0-2.592-.902 7.42 7.42 0 0 0-.865-.06z"/><path fill="#fff" style="fill:var(--color1,#fff)" d="M12.682 1.299c-.672-.012-1.362.073-1.929.208s-1.009.326-1.418.534c-.409.208-.82.449-1.182.712s-.686.556-.944.888c-.258.332-.44.69-.604 1.035s-.321.698-.476 1.048c-.085.191-.16.064.032.149s.362-.029.447-.221c.081-.182.129-.298.207-.441.168-.309.486-.788.726-1.045.173-.185.593-.678 1.028-.99.069-.049.451-.361.906-.609.074-.04.559-.345 1.144-.52.103-.031.716-.229 1.39-.304.24-.027.866-.019 1.39.05.381.05 1.094.182 1.584.317l.022.006c.534.149 1.396.444 1.839.773.688.513 1.293 1.207 1.089.919.038-.649-.571-1.11-1.104-1.422a7.777 7.777 0 0 0-1.264-.557c-.316-.104-.636-.2-.987-.278-.592-.132-1.222-.241-1.894-.253z"/><path fill="#fff" style="fill:var(--color1,#fff)" d="M13.288 2.703c-.585.001-1.607.08-2.253.263-.268.076-.972.32-1.541.602-.208.103-.732.434-1.164.741-.203.145-.659.564-1.045.904-.244.215-.656.555-.876.803-.273.307-.891.71-1.341.912l-.335.149c-.363.163-.962.432-1.354.573a9.03 9.03 0 0 1-1.003.28c-.31.065-.585.13-.5.16.254.088-.314.164-.197.175l.139.014c.431.047 1.128.143 1.561.145 1.152.02 1.958-.019 2.538-.1.241-.034.831-.153 1.315-.28.487-.128 1.283-.388 1.795-.523.263-.07.961-.262 1.557-.439.197-.058.803-.197 1.348-.33.154-.038.901-.197 1.679-.234.233-.011 1.15-.024 2.041-.125.361-.041.77-.101 1.228-.191.301-.059.736-.296 1.025-.334a.589.589 0 0 0 .131-.034c.122-.059.294-.122.355-.144.012-.004.016-.016.007-.026-.241-.289-.618-.783-.86-1.088a4.374 4.374 0 0 0-.415-.458 3.83 3.83 0 0 0-.762-.561 8.54 8.54 0 0 0-1.056-.497 5.901 5.901 0 0 0-.223-.079c-.477-.158-1.29-.28-1.792-.279zm-.05.62c.412 0 1.104.104 1.53.238.329.103.84.339 1.135.522.283.176.684.543.891.813.307.4.33.514.477.724 0 0 .392-.199.207-.141-.41.128-.522.298-1.808.423-.644.063-1.18.06-1.694.086s-1.101.026-1.616.094c-.531.071-.962.144-1.495.276s-1.034.287-1.557.456c-.247.08-.502.163-.758.25-.475.161-1.247.424-1.742.499-.245.037-.816.139-1.281.193a6.84 6.84 0 0 1-1.035.052c-.237-.008 1.521-.71 1.713-.829l.265-.162c.557-.341 1.39-.997 1.868-1.441.149-.139.647-.562 1.145-.9.175-.119.674-.448 1.157-.642a6.553 6.553 0 0 1 1.17-.352c.366-.065.665-.102.665-.102.383-.075.766-.056.766-.056z"/><path fill="#fff" style="fill:var(--color1,#fff)" d="M16.863 1.525c-.1.01.1-.024.036.054a.378.378 0 0 0 .056.533c.202.164.41.332.7.548s.649.469.939.716A4.083 4.083 0 0 1 19.78 4.98c.122.296.206.593.25.938s.047.747.01 1.085c-.037.338-.108.613-.227.91s-.28.605-.502.962-.502.756-.787 1.161c-.12.171-.079.408.092.528s-.157.856-.037.684c.251-.558.845-1.505 1.083-1.888s.424-.732.563-1.082c.14-.351.232-.705.276-1.108s.041-.851-.011-1.263c-.053-.413-.157-.782-.301-1.131a4.819 4.819 0 0 0-1.396-1.892c-.329-.279-.701-.541-.979-.747a18.547 18.547 0 0 1-.675-.528.377.377 0 0 0-.278-.082z"/><path fill="#fff" style="fill:var(--color1,#fff)" d="M4.652 5.487c-.24.008-.495.03-.75.076-.51.092-.995.28-1.419.575s-.783.683-.979 1.144c-.196.461-.191.937-.079 1.335s.346.744.67 1.033c.325.289.758.552 1.306.747s1.189.317 1.742.42 1.037.186 1.475.236c.438.051.827.068 1.285.085s1.033.037 1.579.013 1.07-.093 1.571-.2.985-.252 1.517-.431c.531-.179 1.122-.395 1.63-.622s.929-.465 1.305-.732c.377-.268.708-.564 1.008-.864s.579-.611.833-.932c.254-.321.479-.642.696-.953.147-.21.564-.611.295-.813-.21-.147-.923.641-1.069.851a3.55 3.55 0 0 1-.172.226c-.306.378-.821.979-1.199 1.284-.133.107-.519.407-.876.65a9.961 9.961 0 0 1-.913.533c-.243.124-.902.413-1.479.619-.291.104-.979.343-1.546.492-.246.065-.794.195-1.227.261-.293.044-.964.074-1.494.071-.286-.002-.943-.02-1.466-.073-.109-.011-.68-.075-1.271-.174-.201-.034-.915-.149-1.566-.354a5.29 5.29 0 0 1-.991-.459l-.055-.034c-.155-.095-.409-.249-.531-.384a3.767 3.767 0 0 1-.302-.391c-.188-.276-.32-.806-.237-1.128.056-.215.244-.602.46-.811.225-.218.796-.605 1.297-.743.197-.054.762-.133 1.257-.131.107 0 .462.011.789.053.123.016.439.049.705.068.28.02.552-.579.456-.504-.524.266-.461.142-.712.094-.236-.045-.503-.096-.888-.12-.192-.012-.416-.019-.656-.012z"/><path fill="#fff" style="fill:var(--color1,#fff)" d="M2.087 9.498c-.15.252-.326.544-.429.936s-.127.838-.089 1.241c.039.403.147.755.303 1.077s.367.632.667.929c.301.298.69.59 1.147.754.229.082.455.132.677.124.111-.004.227-.014.36-.105s.029-.26-.007-.42c-.036-.16-.116-.263-.187-.356s.053-.234-.033-.327l-.008-.008c-.206-.229-.368-.728-.378-1.038a1.17 1.17 0 0 1 .005-.158 1.758 1.758 0 0 1 .2-.575c.043-.07.132-.172.186-.235l.007-.008a2.05 2.05 0 0 1 .68-.491c.187-.071.382-.138.462-.195l-1.385-.535c-.148.105.148.342-.031.536s-.438.482-.554.754c-.116.272-.139.453-.171.731-.05.433.012.892.207 1.557l-.112-.069c-.312-.191-.789-.546-1.007-.839-.107-.144-.393-.585-.437-1.019 0-.004-.053-.276-.023-.605.014-.153.102-.589.26-.945a2.25 2.25 0 0 1 .115-.225zM17.33 1.89c-.064-.021-.059-.068-.118-.038-.083.042-.48-.076-.705-.138-.08-.022-.082.015-.003.069 1.015.69 1.15 1.497 1.396 1.969.257.494.496.944.663 1.343a5.075 5.075 0 0 1 .405 2.164 7.644 7.644 0 0 1-.118 1.168c-.075.435-.192.94-.309 1.447a.252.252 0 1 0 .492.114c.117-.508.236-1.018.315-1.475s.118-.858.125-1.245a5.59 5.59 0 0 0-.444-2.369c-.181-.432-.425-.889-.68-1.381s-.594-.948-.865-1.481c-.03-.06-.089-.128-.153-.149z"/><path fill="none" stroke="#fff" style="stroke:var(--color1,#fff)" stroke-linejoin="round" stroke-linecap="round" stroke-width=".48" d="M4.672 13.206c.456-.043.914-.086 1.31-.034s.729.2 1.036.379c.307.179.588.388.812.678s.391.659.561 1.034"/><path fill="#fff" style="fill:var(--color1,#fff)" d="m36.418 8.483-.241-.91-.909-.243.91-.241.243-.909.241.91.909.243-.91.241zM38.203 15.608l-.181-.682-.682-.182.682-.181.182-.682.181.682.682.182-.682.181zM24.196 19.122l-.181-.683-.682-.182.683-.181.182-.682.181.683.682.182-.683.181zM29.976 6.05l-.241-.91-.909-.243.91-.241.243-.909.241.91.909.243-.91.241zM24.254 8.478l-.241-.91-.909-.243.91-.241.243-.909.241.91.909.243-.91.241zM28.095 6.746l-.125-.47-.47-.126.47-.125.126-.47.125.47.47.126-.47.125zM31.79 6.771l-.125-.47-.47-.126.47-.125.126-.47.125.47.47.126-.47.125zM31.26 10.5c-.113.122-.213.224-.27.236s-.072-.068-.084-.193c-.012-.125-.02-.3.005-.471s.085-.338.213-.497c.121-.151.305-.295.491-.439.016-.013.03-.006.031.015.005.137.009.273.009.399 0 .058-.002.152-.006.21a.84.84 0 0 1-.088.338 1.763 1.763 0 0 1-.302.403zM28.782 10.486c.113.122.213.224.27.236s.072-.068.084-.193c.012-.125.02-.3-.005-.471s-.085-.338-.213-.497c-.121-.151-.305-.295-.491-.439-.016-.013-.03-.006-.031.015-.005.137-.009.273-.009.399 0 .058.002.152.006.21a.84.84 0 0 0 .088.338c.076.153.189.281.302.403zM32.176 11.243c-.146.079-.273.144-.331.136s-.047-.087-.017-.209c.029-.122.077-.291.156-.445s.189-.293.361-.402c.164-.104.384-.182.606-.258.02-.007.031.004.025.024-.04.131-.079.261-.12.38a3.31 3.31 0 0 1-.073.197.836.836 0 0 1-.192.292c-.121.121-.27.205-.415.284zM32.419 14.219c-.165-.015-.308-.023-.358.006s-.008.099.067.199c.075.1.186.236.32.346s.29.193.491.226c.191.031.424.015.659-.004.021-.002.026-.016.013-.031a9.453 9.453 0 0 0-.261-.301 3.469 3.469 0 0 0-.145-.152.853.853 0 0 0-.292-.192 1.758 1.758 0 0 0-.494-.096zM27.514 14.285c.165-.018.307-.03.358-.002s.01.098-.063.2c-.073.102-.181.24-.312.353s-.285.2-.486.236c-.191.035-.424.024-.659.011-.021-.001-.027-.015-.014-.031.086-.106.172-.212.254-.307.038-.044.101-.114.142-.155a.848.848 0 0 1 .288-.198c.158-.066.327-.088.492-.107zM31.566 15.269c-.122-.112-.23-.206-.288-.214s-.067.073-.068.198c-.002.125.004.301.043.469s.111.33.251.478c.133.141.327.27.524.399.017.011.031.004.03-.017a11.302 11.302 0 0 0-.023-.398 4.768 4.768 0 0 0-.022-.209.84.84 0 0 0-.114-.33 1.772 1.772 0 0 0-.333-.378zM28.388 15.325c.109-.125.206-.23.263-.243s.074.066.089.19c.015.125.028.3.008.471s-.076.34-.199.502c-.117.154-.297.304-.479.453-.016.013-.03.007-.031-.014-.008-.137-.016-.272-.02-.398a2.94 2.94 0 0 1 0-.21.86.86 0 0 1 .078-.341c.072-.155.182-.286.291-.411zM27.844 11.243c.146.079.273.144.331.136s.047-.087.017-.209c-.029-.122-.077-.291-.156-.445s-.189-.293-.361-.402c-.164-.104-.384-.182-.606-.258-.02-.007-.031.004-.025.024.04.131.079.261.12.38.019.055.05.144.073.197a.836.836 0 0 0 .192.292c.121.121.27.205.415.284zM29.843 11.258c-.448.002-.143.085-.258.087-.015 0 .11.012 0 .018l-.21.048c-.455.059-.794.009-.915.489-.016.062-.109.341-.145.469-.018.064-.108.209-.133.302s.052.402.048.456c-.007.089.043.168.123.328.042.085.047.301.093.416.023.057.186.093.209.136s.103.156.137.177c.068.041.231.213.41.289s.377.13.599.145c.114.007.482-.012.627-.035.073-.011.259-.094.314-.107s.253-.154.281-.17c.035-.02.096-.156.147-.196s.305-.197.327-.261c.013-.039.249-.297.24-.339l-.087-.165c.011-.053.064-.014.078-.051a4.524 4.524 0 0 0-.236-.134l.081.01c.038-.019.012-.349.03-.363l-.049-.218a.042.042 0 0 0 .009-.059c-.008-.011-.087-.17-.157-.303.013-.12.006-.256-.072-.344-.128-.065-.135-.25-.272-.287s-.823-.328-.977-.333a5.815 5.815 0 0 0-.241-.005zm-.298.466c.009-.001.016.017.018.091.054.376.075.234.154.253a.467.467 0 0 1 .139.056l-.072.037c-.022-.008-.185.009-.192.031-.025.099-.044.215-.07.304-.014-.032-.01-.039-.024-.066l-.024-.18a.073.073 0 0 0-.017-.042c.006-.041-.382-.082-.344-.095s.12-.008.147-.028c.046-.033.189.001.2-.039.052-.185.063-.263.061-.295.008-.008.017-.024.025-.025zm.873.361.024.004c.125.033.431.11.559.174.012.006.128.083.224.141-.042.03-.086.068-.104.077-.037.019-.291.09-.34.112a.969.969 0 0 0-.318.272c-.024.041-.042.155-.059.199s-.041.247-.035.303c.019.188.017.101.04.245a.229.229 0 0 0-.067-.006.444.444 0 0 1-.083.003c.016-.007.027-.015.023-.02-.021-.029-.058-.037-.068-.052l-.038-.054c.003.009-.005.012-.058-.031-.035-.028-.052-.049-.076-.072-.05-.048-.063-.096-.088-.126-.015-.018-.077-.1-.098-.113s-.054-.127-.08-.141l-.01-.005c.01-.032-.004-.101-.006-.166-.003-.171.177-.496.289-.628.117.005.259-.124.37-.117zm-.242 1.399c-.003-.009-.014-.022 0 0zm-1.071-.857.003.02c.014.029.012.109.026.164.036.141.18.09.18.09.01 0 .034.013.062.028-.082.007-.213.025-.223.045-.026.05-.046.161-.07.212l-.015-.088c-.027-.148-.014-.107-.094-.126-.148-.033-.134-.075.045-.098.03-.004.07-.137.087-.247zm.528.756c.006 0 .011.019.021.056.013.05-.018.102.027.115.069.021.166.044.205.053a.865.865 0 0 0-.204.055c-.066.027-.029.213-.058.173-.04-.056-.012-.032-.029-.139-.008-.051.027-.045-.243-.094a.124.124 0 0 1 .046-.014c.091-.011.192-.024.197-.047.022-.106.03-.158.039-.157zm.185.205c.003-.001.042.007.09.016l-.02.002-.02-.005a.19.19 0 0 1-.049-.014z"/></symbol><symbol id="burger-menu" viewBox="0 0 32 32"><path d="M2.666 8A1.335 1.335 0 0 1 4 6.666h24A1.33 1.33 0 0 1 29.333 8 1.333 1.333 0 0 1 28 9.334H4A1.335 1.335 0 0 1 2.666 8zm0 8.043A1.33 1.33 0 0 1 4 14.71h24a1.333 1.333 0 1 1 0 2.666H4a1.333 1.333 0 0 1-1.334-1.333zM4 22.752a1.337 1.337 0 0 0-1.334 1.333A1.33 1.33 0 0 0 4 25.418h24a1.333 1.333 0 1 0 0-2.666H4z"/></symbol></defs></svg>