<svg xmlns="http://www.w3.org/2000/svg" aria-hidden="true" style="position:absolute;width:0;height:0;overflow:hidden">
    <defs>
        <symbol id="logo" viewBox="0 0 40 32">
            <path fill="none" stroke="#fff" style="stroke: var(--color1, #fff)" stroke-linejoin="round"
                stroke-linecap="round" stroke-miterlimit="4" stroke-width="0.8678"
                d="M35.258 12.94c0 2.895-2.347 5.242-5.242 5.242s-5.242-2.347-5.242-5.242c0-2.895 2.347-5.242 5.242-5.242s5.242 2.347 5.242 5.242z">
            </path>
            <path fill="#fff" style="fill: var(--color1, #fff)"
                d="M21.497 10.443c-0.013 0-0.027 0.003-0.042 0.009-0.272 0.1-0.784 0.336-0.96 0.457s-0.324 0.264-0.389 0.472c-0.065 0.208 0.002 0.449 0.126 0.606s0.288 0.269 0.489 0.373c0.806 0.418 2.299 0.723 4.451 0.931 1.049 0.101 2.167 0.166 3.301 0.198-0.002-0.012-0.003-0.024-0.004-0.036-0.003-0.027-0.085-0.041-0.088-0.068-0.004-0.032-0.014-0.059-0.018-0.091-0.004-0.036 0.023-0.085 0.019-0.121-0.005-0.040-0.023-0.085-0.030-0.125s-0.032-0.102-0.035-0.142c-0.002-0.032 0.021-0.058 0.022-0.090 0.001-0.013-0.036-0.083-0.034-0.096-1.089-0.031-2.064-0.020-3.066-0.117-2.114-0.204-3.6-0.545-4.198-0.856-0.143-0.074-0.222-0.143-0.252-0.178 0.006-0.007 0.014-0.031 0.099-0.089 0.104-0.071 0.277-0.159 0.514-0.245 0.081-0.030 0.136-0.051 0.172-0.084 0.090-0.083 0.060-0.317 0.051-0.443-0.011-0.143-0.038-0.266-0.126-0.264z">
            </path>
            <path fill="#fff" style="fill: var(--color1, #fff)"
                d="M36.549 10.035c-0.187 0.012-0.438 0.301-0.464 0.478-0.028 0.189 0.209 0.179 0.398 0.208 0.903 0.135 1.61 0.294 2.102 0.457 0.464 0.154 0.706 0.335 0.752 0.386-0.014 0.018-0.037 0.054-0.135 0.116-0.235 0.147-0.724 0.329-1.434 0.49-1.648 0.373-3.492 0.537-6.151 0.579-0 0.018 0.056 0.070 0.056 0.088-0.001 0.165 0.144 0.072 0.139 0.237-0.002 0.015 0.002 0.123-0 0.139-0.007 0.047-0.006 0.199-0.024 0.221 2.705-0.038 4.386-0.193 6.133-0.589 0.749-0.17 1.283-0.35 1.648-0.579 0.182-0.114 0.333-0.242 0.421-0.431s0.067-0.442-0.039-0.615c-0.213-0.346-0.596-0.514-1.148-0.698s-1.29-0.346-2.218-0.485c-0.012-0.002-0.024-0.002-0.036-0.001z">
            </path>
            <path fill="#fff" style="fill: var(--color1, #fff)"
                d="M35.786 9.911c-0.196 0.124-0.397 0.245-0.717 0.434-0.418 0.246-0.572 0.351-0.886 0.534-0.275 0.16-0.715 0.429-0.981 0.604-0.179 0.118-0.305 0.198-0.431 0.279-0.078 0.051-0.067 0.11 0.024 0.127 0.030 0.006 0.058 0.011 0.086 0.015 0.406 0.066 1.046-0.175 1.426-0.343 0.394-0.175 0.734-0.32 1.146-0.563 0.485-0.286 0.897-0.584 1.266-0.889 0.178-0.147 0.548-0.42 0.479-0.619-0.023-0.065-0.126-0.177-0.236-0.189-0.001-0-0.001-0-0.002-0-0.364-0.037-0.863 0.414-1.175 0.611z">
            </path>
            <path fill="#fff" style="fill: var(--color1, #fff)"
                d="M24.236 9.911c0.196 0.124 0.397 0.245 0.717 0.434 0.418 0.246 0.572 0.351 0.886 0.534 0.275 0.16 0.715 0.429 0.981 0.604 0.179 0.118 0.305 0.198 0.43 0.279 0.078 0.051 0.067 0.11-0.024 0.127-0.030 0.006-0.058 0.011-0.086 0.015-0.406 0.066-1.046-0.175-1.426-0.343-0.394-0.175-0.734-0.32-1.146-0.563-0.485-0.286-0.897-0.584-1.266-0.889-0.178-0.147-0.548-0.42-0.479-0.619 0.023-0.065 0.126-0.177 0.236-0.189 0.001-0 0.001-0 0.002-0 0.364-0.037 0.863 0.414 1.175 0.611z">
            </path>
            <path fill="none" stroke="#fff" style="stroke: var(--color1, #fff)" stroke-linejoin="round"
                stroke-linecap="round" stroke-miterlimit="4" stroke-width="0.5814"
                d="M24.888 15.008c-0.542 0.286-1.084 0.573-1.627 0.859"></path>
            <path fill="none" stroke="#fff" style="stroke: var(--color1, #fff)" stroke-linejoin="round"
                stroke-linecap="round" stroke-miterlimit="4" stroke-width="0.5814"
                d="M35.057 15.008c0.542 0.286 1.084 0.573 1.627 0.859"></path>
            <path fill="none" stroke="#fff" style="stroke: var(--color1, #fff)" stroke-linejoin="round"
                stroke-linecap="round" stroke-miterlimit="4" stroke-width="0.5814"
                d="M31.811 12.958c0 1.021-0.828 1.848-1.848 1.848s-1.848-0.828-1.848-1.848c0-1.021 0.828-1.848 1.848-1.848s1.848 0.828 1.848 1.848z">
            </path>
            <path fill="none" stroke="#fff" style="stroke: var(--color1, #fff)" stroke-linejoin="round"
                stroke-linecap="round" stroke-miterlimit="4" stroke-width="0.6235"
                d="M30.019 7.836c0.002 1.169 0.004 2.341 0.006 3.513"></path>
            <path fill="none" stroke="#fff" style="stroke: var(--color1, #fff)" stroke-linejoin="round"
                stroke-linecap="round" stroke-miterlimit="4" stroke-width="0.6235"
                d="M30.019 14.77c0.002 1.169 0.004 2.341 0.006 3.513"></path>
            <path fill="#fff" style="fill: var(--color1, #fff)"
                d="M8.996 13.163c-0.234 0.018 0.134 1.815 0.152 2.050 0.035 0.453 0.069 0.899 0.082 1.331s0.004 0.851-0.036 1.283c-0.040 0.432-0.111 0.883-0.194 1.283s-0.168 0.707-0.353 1.034c-0.186 0.327-0.488 0.688-0.862 0.986s-0.827 0.544-1.448 0.776c-0.622 0.233-1.417 0.452-2.219 0.672-0.227 0.062-0.643 0.050-0.581 0.276s0.242 0.094 0.469 0.032c0.4-0.11 0.871-0.161 1.337-0.211 0.729-0.079 1.894-0.384 2.503-0.789 0.232-0.155 0.921-0.701 1.309-1.376 0.008-0.014 0.291-0.532 0.462-1.211 0.037-0.147 0.155-0.747 0.213-1.347 0.011-0.119 0.051-0.698 0.029-1.292-0.004-0.101-0.008-0.201-0.011-0.302-0.013-0.459-0.098-1.003-0.133-1.456-0.018-0.234-0.483-1.756-0.717-1.738z">
            </path>
            <path fill="#fff" style="fill: var(--color1, #fff)"
                d="M22.724 22.505c-0.096-0.031-0.116-0.116-0.205-0.070-0.341 0.174-0.589 0.296-0.927 0.523s-0.645 0.495-0.919 0.778c-0.274 0.283-0.519 0.587-0.757 0.875s-0.486 0.584-0.725 0.87c-0.24 0.286-0.465 0.555-0.725 0.832s-0.553 0.561-0.868 0.821c-0.315 0.26-0.656 0.5-1.005 0.706-0.144 0.085-0.308 0.182-0.476 0.279-0.383 0.219-1.035 0.514-1.449 0.666-0.329 0.121-1.009 0.35-1.533 0.445-0.424 0.076-0.906 0.137-1.533 0.232 0.963 0.072 1.56 0.037 2.081-0.030 0.466-0.060 1.209-0.226 1.648-0.393 0.146-0.056 0.649-0.262 1.107-0.491 0.104-0.052 0.207-0.107 0.311-0.168 0.386-0.227 0.758-0.489 1.104-0.775s0.66-0.591 0.938-0.887 0.514-0.578 0.753-0.864c0.24-0.286 0.489-0.583 0.73-0.875s0.475-0.581 0.717-0.831c0.242-0.25 0.512-0.484 0.797-0.676s0.394-0.265 0.735-0.438c0.435-0.222 0.81-0.052 0.455-0.358-0.046-0.090-0.156-0.14-0.252-0.171z">
            </path>
            <path fill="#fff" style="fill: var(--color1, #fff)"
                d="M3.192 25.581c-0.138 0.007-0.706 0.035-0.894 0.087-0.526 0.145-0.752 0.254-1.105 0.62s-0.404 0.737-0.425 1.203c-0.020 0.465-0.369 0.93-0.122 1.326s0.848 1.037 1.271 1.293c0.424 0.257 1.107 0.577 1.68 0.705s1.486 0.187 2.088 0.209 1.144-0.062 1.693-0.088c0.531-0.026 1.204-0.062 3.225-0.556 0.442-0.108-1.113-0.071-2.29-0.030-0.66 0.023-1.732 0.060-2.392 0.036-0.253-0.009-0.873-0.033-1.374-0.12-0.416-0.072-1.131-0.225-1.565-0.41-0.256-0.109-0.795-0.41-1.088-0.765-0.083-0.101-0.291-0.444-0.387-0.788-0.075-0.267-0.067-0.742 0.038-1.016 0.003-0.007 0.006-0.014 0.008-0.021 0.090-0.226 0.367-0.523 0.57-0.66 0.041-0.028 0.084-0.055 0.128-0.081 0.282-0.165 0.817-0.257 1.144-0.246 0.452 0.015 1.203 0.178 1.676 0.308 0.006 0.002 0.013 0.003 0.019 0.005 0.545 0.151 1.405 0.476 1.929 0.689 0.416 0.169 1.123 0.442 1.585 0.596 0.443 0.147 1.265 0.394 1.842 0.513 0.042 0.009 0.518 0.126 1.075 0.158 0.529 0.031 1.333 0.032 2.573-0.050-1.618-0.063-3.113-0.498-3.318-0.539-0.369-0.073-0.742-0.262-1.197-0.388s-0.938-0.381-1.495-0.593c-0.557-0.212-1.151-0.466-1.731-0.684s-1.154-0.481-1.728-0.595c-0.43-0.086-1.022-0.134-1.435-0.115z">
            </path>
            <path fill="#fff" style="fill: var(--color1, #fff)"
                d="M22.102 22.275c-0.167-0.014-0.169-0.113-0.298-0.005-0.333 0.28-0.657 0.553-0.977 0.791s-0.662 0.585-1.077 0.927c-0.415 0.341-0.848 0.626-1.226 0.906s-0.771 0.488-1.208 0.684-0.888 0.367-1.332 0.483c-0.444 0.116-0.903 0.184-1.329 0.205s-0.799-0.001-1.269-0.098c-0.471-0.097-1.040-0.274-1.509-0.479s-0.875-0.452-1.307-0.711-0.859-0.511-1.226-0.731c-0.367-0.221-0.707-0.432-1.083-0.631s-0.774-0.377-1.226-0.557c-0.452-0.18-0.974-0.369-1.528-0.497s-1.124-0.192-1.697-0.155c-0.572 0.037-1.136 0.172-1.641 0.428s-0.914 0.616-1.238 1.003-0.577 0.811-0.728 1.251c-0.151 0.44-0.18 0.845-0.193 1.143s-0.027 0.78 0.064 1.252c0.095 0.493 0.177 0.612 0.425 1.087 0.32 0.604 0.58 0.804 0.828 0.378 0.329-0.117 0.007-0.227-0.11-0.556-0.070-0.198-0.115-0.396-0.148-0.581-0.061-0.337-0.179-0.88-0.25-1.215-0.057-0.267-0.062-0.725-0.023-1.012 0.028-0.202 0.186-0.697 0.419-1.058 0.085-0.133 0.458-0.587 0.907-0.916 0.148-0.109 0.683-0.379 1.217-0.465 0.167-0.027 0.776-0.070 1.35-0.008 0.27 0.029 0.979 0.193 1.564 0.407 0.17 0.062 0.702 0.282 1.166 0.532 0.145 0.078 0.598 0.281 0.988 0.498 0.085 0.047 0.64 0.37 1.24 0.72 0.158 0.092 0.777 0.522 1.438 0.857 0.148 0.075 0.814 0.385 1.522 0.586 0.257 0.073 1.070 0.256 1.816 0.245 0.133-0.002 0.773-0.022 1.405-0.17 0.288-0.068 0.905-0.258 1.376-0.426 0.283-0.101 0.879-0.431 1.345-0.697 0.323-0.184 0.865-0.596 1.228-0.89 0.129-0.105 0.249-0.191 0.454-0.303 0.402-0.219 0.815-0.58 1.177-0.849s0.478-0.336 0.811-0.616c0.267-0.225 0.606-0.206 0.381-0.473-0.108-0.128-0.332-0.271-0.499-0.285z">
            </path>
            <path fill="#fff" style="fill: var(--color1, #fff)"
                d="M9.627 14.51c-0.33 0.114-0.505 0.473-0.391 0.803 0.303 0.878 0.604 1.779 1.036 2.507s0.965 1.198 1.416 1.497 0.85 0.446 1.179 0.566c0.572 0.195 1.124 0.36 1.040-0.603 0.045-2.244-0.094-1.103-0.422-1.224-0.329-0.121-0.37-0.181-0.7-0.4s-0.763-0.091-1.086-0.636c-0.323-0.545-0.966-1.241-1.268-2.119-0.114-0.33-0.473-0.505-0.803-0.392z">
            </path>
            <path fill="#fff" style="fill: var(--color1, #fff)"
                d="M14.398 17.935c-0.233 0.030-0.398 0.243-0.368 0.476 0.052 0.407 0.107 0.86 0.298 1.339s0.501 0.949 0.904 1.338c0.403 0.389 0.902 0.692 1.494 0.858s1.232 0.195 1.852 0.215 1.23 0.030 1.698 0.066c0.468 0.036 0.852 0.060 1.131 0.159s0.654 0.151 0.94 0.32c0.374 0.209 1.382 0.499 1.196 0.356-0.239-0.184-0.417-0.319-0.552-0.42-0.311-0.232-0.85-0.561-1.208-0.71-0.202-0.084-0.768-0.236-1.267-0.247-0.284-0.006-0.984-0.057-1.564-0.083-0.29-0.013-1.071-0.036-1.717-0.193-0.217-0.053-0.969-0.201-1.456-0.648-0.023-0.021-0.383-0.284-0.627-0.712-0.060-0.106-0.25-0.522-0.373-0.944-0.007-0.026-0.015-0.051-0.021-0.077-0.045-0.171-0.075-0.456-0.101-0.631-0.036-0.236-0.103-0.482-0.258-0.463z">
            </path>
            <path fill="none" stroke="#fff" style="stroke: var(--color1, #fff)" stroke-linejoin="round"
                stroke-linecap="round" stroke-miterlimit="4" stroke-width="0.6488"
                d="M18.127 5.844c0.050 0.516 0.1 1.033 0.156 1.49s0.118 0.854 0.16 1.222c0.042 0.367 0.063 0.71 0.066 1.018s-0.015 0.585-0.067 0.889c-0.052 0.304-0.138 0.637-0.2 0.933s-0.102 0.565-0.104 0.818c-0.003 0.254 0.031 0.494-0.015 0.806s-0.175 0.7-0.315 1.089c-0.139 0.389-0.296 0.798-0.452 1.167s-0.31 0.697-0.478 1.012c-0.168 0.316-0.353 0.623-0.552 0.902s-0.417 0.536-0.708 0.704c-0.292 0.168-0.659 0.25-1.011 0.249s-0.69-0.085-1.036-0.209c-0.347-0.124-0.716-0.292-1.061-0.49s-0.678-0.433-0.972-0.693c-0.293-0.26-0.553-0.551-0.782-0.849s-0.429-0.608-0.609-0.935c-0.179-0.327-0.338-0.672-0.46-1.004s-0.208-0.652-0.286-0.975c-0.078-0.323-0.147-0.65-0.193-0.995s-0.068-0.708-0.091-1.071">
            </path>
            <path fill="#fff" style="fill: var(--color1, #fff)"
                d="M27.244 20.235c-0.256 0.065-0.575 0.204-0.684 0.266-0.264 0.149-0.405 0.207-0.71 0.438-0.298 0.225-0.55 0.51-0.755 0.841s-0.339 0.669-0.436 0.922-0.118 0.337-0.269 0.506c-0.151 0.169-0.493 0.448-0.844 0.735s-0.704 0.584-1.072 0.896c-0.368 0.312-0.757 0.642-1.129 0.973s-0.729 0.665-1.095 1.009c-0.366 0.345-0.747 0.705-1.097 1.038s-0.661 0.656-0.971 0.934c-0.31 0.278-0.57 0.524-0.858 0.82-1.089 1.119-1.798 1.566-2.295 2.078 0.262-0.046 1.126-0.648 1.749-1.106 0.37-0.272 0.966-0.717 1.329-0.998 0.191-0.147 0.676-0.562 1.090-0.918 0.197-0.169 0.701-0.648 1.136-1.059 0.17-0.16 0.658-0.624 1.1-1.027 0.155-0.142 0.56-0.501 0.908-0.799 0.267-0.229 0.753-0.64 1.084-0.918 0.253-0.212 0.701-0.569 0.987-0.813 0.245-0.21 0.617-0.607 0.738-0.916 0.049-0.126 0.166-0.46 0.298-0.73 0.072-0.147 0.277-0.546 0.538-0.823 0.055-0.058 0.278-0.263 0.506-0.448 0.15-0.122 0.466-0.324 0.702-0.449 0.489-0.259 1.19-0.583 1.003-0.496-0.062-0.109-0.826 0.006-0.956 0.043z">
            </path>
            <path fill="#fff" style="fill: var(--color1, #fff)"
                d="M34.553 18.413c-0.35 0.254-0.692 0.463-1.074 0.691-0.388 0.23-0.769 0.439-1.184 0.643s-0.838 0.447-1.161 0.554c-0.323 0.107-0.633 0.259-0.944 0.291s-0.592 0.111-0.977 0.133c-0.261 0.015-0.298 0.008-0.283 0.268s-0.084 0.365 0.176 0.35c0.386-0.022 0.904-0.079 1.244-0.144 0.352-0.067 0.716-0.162 1.105-0.291s0.61-0.239 1.052-0.456c0.191-0.094 1.209-0.656 1.393-0.756-0.196 0.259-0.906 1.308-1.088 1.513-0.291 0.328-0.542 0.558-0.883 0.768s-0.809 0.418-1.309 0.594c-0.5 0.176-1.049 0.329-1.572 0.48s-1.029 0.3-1.522 0.536c-0.494 0.236-0.958 0.552-1.395 0.964s-0.837 0.908-1.196 1.409-0.675 1.012-0.983 1.556c-0.309 0.544-0.61 1.124-0.882 1.655s-0.518 1.023-0.699 1.388c-0.18 0.366-0.295 0.606-0.408 0.843-0.112 0.236-0.285 0.409 0.039 0.532 0.292 0.104 0.409 0.074 0.474-0.014 0.135-0.182 0.244-0.542 0.344-0.746 0.060-0.121 0.125-0.251 0.215-0.433 0.178-0.36 0.375-0.7 0.645-1.226s0.693-1.247 0.99-1.771c0.297-0.524 0.595-1.004 0.93-1.473s0.705-0.921 1.075-1.271c0.37-0.349 0.748-0.605 1.154-0.799s0.861-0.332 1.377-0.481c0.516-0.149 1.082-0.305 1.624-0.496s1.061-0.416 1.492-0.682c0.431-0.266 0.766-0.577 1.092-0.944s0.67-0.814 0.991-1.267c0.16-0.226 0.317-0.456 0.437-0.658 0.060-0.101 0.19-0.24 0.231-0.34s0.368-0.48 0.388-0.879c0.018-0.347-0.16-0.398-0.326-0.369-0.169 0.030-0.401 0.196-0.583 0.328z">
            </path>
            <path fill="#fff" style="fill: var(--color1, #fff)"
                d="M30.066 19.821l-0.228 0.204c-0.224 0.196-0.374 0.328-0.632 0.502-0.176 0.118-0.46 0.31-0.628 0.439l-0.026 0.020c-0.176 0.135-0.447 0.372-0.578 0.551-0.107 0.147-0.175 0.292-0.109 0.394 0.048 0.075 0.157 0.039 0.281-0.036 0.271-0.165 0.696-0.451 0.994-0.559 0.090-0.033 0.369-0.215 0.627-0.391l0.047-0.032c0.083-0.056 0.173-0.127 0.258-0.206s0.163-0.164 0.232-0.252l-0.008 0.010c0.152-0.191 0.471-0.556 0.661-0.851 0.072-0.112 0.103-0.208 0.049-0.281-0.098-0.137-0.444 0.078-0.596 0.192-0.049 0.036-0.203 0.17-0.345 0.297z">
            </path>
            <path fill="#fff" style="fill: var(--color1, #fff)"
                d="M6.322 11.608c-0.618-0.002-1.211 0.221-1.631 0.699-0.839 0.955-0.53 2.41 0.505 3.262s2.569 0.913 3.409-0.042c0.839-0.955 0.218-4.541-0.296-4.483-0.241 0.027-0.6 0.939-0.813 0.838l0.826 0.362c-0.084-0.116-0.068-0.769-0.078-0.865-0.011-0.109-0.746 0.090-0.876 0.136-0.062 0.022 0.689-0.395 0.195-0.467-0.352-0.154-0.875 0.562-1.24 0.561zM8.321 12.242c0.012 0.016 0.099 0.757 0.112 0.763 0.112 0.046 0.262-0.592 0.486-0.5zM6.289 12.201c0.8-0.008 1.963 0.962 2.097 1.73 0.083 0.476-0.086 0.901-0.338 1.216-0.342 0.427-1.307 0.53-1.808 0.287-0.38-0.184-1.092-0.627-1.332-1.117-0.138-0.283-0.191-0.602-0.134-0.942 0.048-0.291 0.291-0.732 0.544-0.892 0.249-0.157 0.59-0.278 0.971-0.282z">
            </path>
            <path fill="#fff" style="fill: var(--color1, #fff)"
                d="M5.248 13.872c-0.131 0.005-0.261 0.016-0.388 0.027-0.116 0.010-0.202 0.111-0.192 0.227s0.112 0.202 0.227 0.192c0.098-0.008 0.186-0.018 0.269-0.023 0.202-0.014 0.527 0.070 0.7 0.175 0.103 0.063 0.3 0.218 0.418 0.363 0.044 0.054 0.177 0.217 0.236 0.39 0.015 0.045 0.070 0.271 0.065 0.505-0 0.012-0.001 0.025-0.001 0.038 0.006 0.116 0.233 0.152 0.349 0.146s0.205-0.106 0.199-0.222c-0.011-0.191-0.020-0.393-0.067-0.588s-0.131-0.372-0.253-0.536c-0.122-0.163-0.284-0.32-0.482-0.443s-0.429-0.209-0.688-0.239c-0.129-0.015-0.261-0.017-0.391-0.012z">
            </path>
            <path fill="#fff" style="fill: var(--color1, #fff)"
                d="M8.003 10.805c-0.090 0.005-0.18 0.017-0.267 0.032-0.35 0.061-0.698 0.189-0.995 0.309-0.595 0.24-1.021 0.467-1.431 0.686-0.164 0.088-0.226 0.292-0.139 0.456s0.124-0.088 0.289-0.175c0.41-0.219 0.971-0.115 1.533-0.341 0.281-0.113 0.597-0.225 0.859-0.27s0.435-0.011 0.498 0.040c0.063 0.052 0.159 0.256 0.198 0.582s0.039 0.746 0.036 1.175c-0.001 0.186 0.149 0.338 0.335 0.339s0.338-0.149 0.339-0.335c0.003-0.429 0.007-0.867-0.041-1.261s-0.134-0.77-0.439-1.021c-0.229-0.189-0.504-0.232-0.774-0.216z">
            </path>
            <path fill="#fff" style="fill: var(--color1, #fff)"
                d="M12.759 0c-0.301-0.003-0.614 0.011-0.933 0.049-0.638 0.075-1.292 0.239-1.896 0.477s-1.155 0.549-1.638 0.895c-0.482 0.346-0.903 0.732-1.29 1.18s-0.75 0.968-1.026 1.529c-0.276 0.561-0.353 1.056-0.527 1.613-0.076 0.244 0.092 0.072 0.336 0.149s0.532-0.018 0.608-0.262c0.174-0.556 0.342-1.089 0.576-1.564 0.051-0.104 0.107-0.208 0.166-0.31 0.346-0.602 1.092-1.464 1.639-1.892 0.119-0.093 0.598-0.446 1.115-0.706 0.293-0.148 0.97-0.431 1.528-0.562 0.369-0.086 1.096-0.125 1.607-0.078 0.276 0.025 0.96 0.11 1.505 0.268 0.195 0.057 0.618 0.208 0.936 0.354 0.149 0.068 0.29 0.14 0.419 0.214 0.057 0.033 0.106 0.063 0.147 0.089 0.294 0.188 0.725 0.559 1.013 0.757 0.704 0.482-0.178-0.335 0.183 0.045 0.176 0.186 0.067-0.533-0.14-0.684-0.267-0.195-0.546-0.4-0.872-0.598s-0.701-0.39-1.131-0.548c-0.429-0.158-0.914-0.284-1.461-0.354-0.274-0.035-0.564-0.057-0.865-0.060z">
            </path>
            <path fill="#fff" style="fill: var(--color1, #fff)"
                d="M12.682 1.299c-0.672-0.012-1.362 0.073-1.929 0.208s-1.009 0.326-1.418 0.534c-0.409 0.208-0.82 0.449-1.182 0.712s-0.686 0.556-0.944 0.888c-0.258 0.332-0.44 0.69-0.604 1.035s-0.321 0.698-0.476 1.048c-0.085 0.191-0.16 0.064 0.032 0.149s0.362-0.029 0.447-0.221c0.081-0.182 0.129-0.298 0.207-0.441 0.168-0.309 0.486-0.788 0.726-1.045 0.173-0.185 0.593-0.678 1.028-0.99 0.069-0.049 0.451-0.361 0.906-0.609 0.074-0.040 0.559-0.345 1.144-0.52 0.103-0.031 0.716-0.229 1.39-0.304 0.24-0.027 0.866-0.019 1.39 0.050 0.381 0.050 1.094 0.182 1.584 0.317 0.007 0.002 0.015 0.004 0.022 0.006 0.534 0.149 1.396 0.444 1.839 0.773 0.688 0.513 1.293 1.207 1.089 0.919 0.038-0.649-0.571-1.11-1.104-1.422-0.331-0.194-0.9-0.438-1.264-0.557-0.316-0.104-0.636-0.2-0.987-0.278-0.592-0.132-1.222-0.241-1.894-0.253z">
            </path>
            <path fill="#fff" style="fill: var(--color1, #fff)"
                d="M13.288 2.703c-0.585 0.001-1.607 0.080-2.253 0.263-0.268 0.076-0.972 0.32-1.541 0.602-0.208 0.103-0.732 0.434-1.164 0.741-0.203 0.145-0.659 0.564-1.045 0.904-0.244 0.215-0.656 0.555-0.876 0.803-0.273 0.307-0.891 0.71-1.341 0.912-0.185 0.083-0.335 0.149-0.335 0.149-0.363 0.163-0.962 0.432-1.354 0.573-0.167 0.060-0.612 0.198-1.003 0.28-0.31 0.065-0.585 0.13-0.5 0.16 0.254 0.088-0.314 0.164-0.197 0.175 0.048 0.004 0.094 0.009 0.139 0.014 0.431 0.047 1.128 0.143 1.561 0.145 1.152 0.020 1.958-0.019 2.538-0.1 0.241-0.034 0.831-0.153 1.315-0.28 0.487-0.128 1.283-0.388 1.795-0.523 0.263-0.070 0.961-0.262 1.557-0.439 0.197-0.058 0.803-0.197 1.348-0.33 0.154-0.038 0.901-0.197 1.679-0.234 0.233-0.011 1.15-0.024 2.041-0.125 0.361-0.041 0.77-0.101 1.228-0.191 0.301-0.059 0.736-0.296 1.025-0.334 0.034-0.004 0.076-0.014 0.131-0.034 0.122-0.059 0.294-0.122 0.355-0.144 0.012-0.004 0.016-0.016 0.007-0.026-0.241-0.289-0.618-0.783-0.86-1.088-0.121-0.152-0.243-0.293-0.415-0.458-0.204-0.197-0.447-0.379-0.762-0.561-0.279-0.161-0.754-0.384-1.056-0.497-0.074-0.028-0.148-0.054-0.223-0.079-0.477-0.158-1.29-0.28-1.792-0.279zM13.238 3.323c0.412-0 1.104 0.104 1.53 0.238 0.329 0.103 0.84 0.339 1.135 0.522 0.283 0.176 0.684 0.543 0.891 0.813 0.307 0.4 0.33 0.514 0.477 0.724 0 0 0.392-0.199 0.207-0.141-0.41 0.128-0.522 0.298-1.808 0.423-0.644 0.063-1.18 0.060-1.694 0.086s-1.101 0.026-1.616 0.094c-0.531 0.071-0.962 0.144-1.495 0.276s-1.034 0.287-1.557 0.456c-0.247 0.080-0.502 0.163-0.758 0.25-0.475 0.161-1.247 0.424-1.742 0.499-0.245 0.037-0.816 0.139-1.281 0.193-0.307 0.036-0.661 0.065-1.035 0.052-0.237-0.008 1.521-0.71 1.713-0.829 0.087-0.054 0.175-0.107 0.265-0.162 0.557-0.341 1.39-0.997 1.868-1.441 0.149-0.139 0.647-0.562 1.145-0.9 0.175-0.119 0.674-0.448 1.157-0.642 0.178-0.072 0.693-0.267 1.17-0.352 0.366-0.065 0.665-0.102 0.665-0.102 0.383-0.075 0.766-0.056 0.766-0.056z">
            </path>
            <path fill="#fff" style="fill: var(--color1, #fff)"
                d="M16.863 1.525c-0.1 0.010 0.1-0.024 0.036 0.054-0.132 0.163-0.107 0.401 0.056 0.533 0.202 0.164 0.41 0.332 0.7 0.548s0.649 0.469 0.939 0.716c0.29 0.247 0.52 0.492 0.713 0.757s0.351 0.551 0.473 0.847c0.122 0.296 0.206 0.593 0.25 0.938s0.047 0.747 0.010 1.085c-0.037 0.338-0.108 0.613-0.227 0.91s-0.28 0.605-0.502 0.962-0.502 0.756-0.787 1.161c-0.12 0.171-0.079 0.408 0.092 0.528s-0.157 0.856-0.037 0.684c0.251-0.558 0.845-1.505 1.083-1.888s0.424-0.732 0.563-1.082c0.14-0.351 0.232-0.705 0.276-1.108s0.041-0.851-0.011-1.263c-0.053-0.413-0.157-0.782-0.301-1.131s-0.331-0.689-0.562-1.005c-0.231-0.316-0.505-0.608-0.834-0.887s-0.701-0.541-0.979-0.747c-0.277-0.206-0.473-0.364-0.675-0.528-0.078-0.063-0.178-0.093-0.278-0.082z">
            </path>
            <path fill="#fff" style="fill: var(--color1, #fff)"
                d="M4.652 5.487c-0.24 0.008-0.495 0.030-0.75 0.076-0.51 0.092-0.995 0.28-1.419 0.575s-0.783 0.683-0.979 1.144c-0.196 0.461-0.191 0.937-0.079 1.335s0.346 0.744 0.67 1.033c0.325 0.289 0.758 0.552 1.306 0.747s1.189 0.317 1.742 0.42 1.037 0.186 1.475 0.236c0.438 0.051 0.827 0.068 1.285 0.085s1.033 0.037 1.579 0.013c0.546-0.024 1.070-0.093 1.571-0.2s0.985-0.252 1.517-0.431c0.531-0.179 1.122-0.395 1.63-0.622s0.929-0.465 1.305-0.732c0.377-0.268 0.708-0.564 1.008-0.864s0.579-0.611 0.833-0.932c0.254-0.321 0.479-0.642 0.696-0.953 0.147-0.21 0.564-0.611 0.295-0.813-0.21-0.147-0.923 0.641-1.069 0.851-0.053 0.076-0.111 0.152-0.172 0.226-0.306 0.378-0.821 0.979-1.199 1.284-0.133 0.107-0.519 0.407-0.876 0.65-0.134 0.091-0.536 0.342-0.913 0.533-0.243 0.124-0.902 0.413-1.479 0.619-0.291 0.104-0.979 0.343-1.546 0.492-0.246 0.065-0.794 0.195-1.227 0.261-0.293 0.044-0.964 0.074-1.494 0.071-0.286-0.002-0.943-0.020-1.466-0.073-0.109-0.011-0.68-0.075-1.271-0.174-0.201-0.034-0.915-0.149-1.566-0.354-0.139-0.044-0.6-0.219-0.991-0.459-0.019-0.011-0.037-0.023-0.055-0.034-0.155-0.095-0.409-0.249-0.531-0.384-0.102-0.113-0.208-0.253-0.302-0.391-0.188-0.276-0.32-0.806-0.237-1.128 0.056-0.215 0.244-0.602 0.46-0.811 0.225-0.218 0.796-0.605 1.297-0.743 0.197-0.054 0.762-0.133 1.257-0.131 0.107 0 0.462 0.011 0.789 0.053 0.123 0.016 0.439 0.049 0.705 0.068 0.28 0.020 0.552-0.579 0.456-0.504-0.524 0.266-0.461 0.142-0.712 0.094-0.236-0.045-0.503-0.096-0.888-0.12-0.192-0.012-0.416-0.019-0.656-0.012z">
            </path>
            <path fill="#fff" style="fill: var(--color1, #fff)"
                d="M2.087 9.498c-0.15 0.252-0.326 0.544-0.429 0.936s-0.127 0.838-0.089 1.241c0.039 0.403 0.147 0.755 0.303 1.077s0.367 0.632 0.667 0.929c0.301 0.298 0.69 0.59 1.147 0.754 0.229 0.082 0.455 0.132 0.677 0.124 0.111-0.004 0.227-0.014 0.36-0.105s0.029-0.26-0.007-0.42c-0.036-0.16-0.116-0.263-0.187-0.356s0.053-0.234-0.033-0.327c-0.003-0.003-0.005-0.006-0.008-0.008-0.206-0.229-0.368-0.728-0.378-1.038-0.002-0.055 0-0.107 0.005-0.158 0.010-0.097 0.057-0.248 0.090-0.34 0.032-0.089 0.067-0.165 0.11-0.235s0.132-0.172 0.186-0.235c0.002-0.003 0.005-0.006 0.007-0.008 0.153-0.179 0.461-0.407 0.68-0.491 0.187-0.071 0.382-0.138 0.462-0.195l-1.385-0.535c-0.148 0.105 0.148 0.342-0.031 0.536s-0.438 0.482-0.554 0.754c-0.116 0.272-0.139 0.453-0.171 0.731-0.050 0.433 0.012 0.892 0.207 1.557l-0.112-0.069c-0.312-0.191-0.789-0.546-1.007-0.839-0.107-0.144-0.393-0.585-0.437-1.019-0-0.004-0.053-0.276-0.023-0.605 0.014-0.153 0.102-0.589 0.26-0.945 0.036-0.080 0.074-0.156 0.115-0.225z">
            </path>
            <path fill="#fff" style="fill: var(--color1, #fff)"
                d="M17.33 1.89c-0.064-0.021-0.059-0.068-0.118-0.038-0.083 0.042-0.48-0.076-0.705-0.138-0.080-0.022-0.082 0.015-0.003 0.069 1.015 0.69 1.15 1.497 1.396 1.969 0.257 0.494 0.496 0.944 0.663 1.343s0.268 0.758 0.329 1.109c0.061 0.35 0.083 0.696 0.076 1.055s-0.043 0.733-0.118 1.168c-0.075 0.435-0.192 0.94-0.309 1.447-0.032 0.136 0.053 0.272 0.189 0.303s0.272-0.053 0.303-0.189c0.117-0.508 0.236-1.018 0.315-1.475s0.118-0.858 0.125-1.245c0.008-0.386-0.016-0.766-0.083-1.152s-0.18-0.785-0.361-1.217c-0.181-0.432-0.425-0.889-0.68-1.381s-0.594-0.948-0.865-1.481c-0.030-0.060-0.089-0.128-0.153-0.149z">
            </path>
            <path fill="none" stroke="#fff" style="stroke: var(--color1, #fff)" stroke-linejoin="round"
                stroke-linecap="round" stroke-miterlimit="4" stroke-width="0.4803"
                d="M4.672 13.206c0.456-0.043 0.914-0.086 1.31-0.034s0.729 0.2 1.036 0.379c0.307 0.179 0.588 0.388 0.812 0.678s0.391 0.659 0.561 1.034">
            </path>
            <path fill="#fff" style="fill: var(--color1, #fff)"
                d="M36.418 8.483l-0.241-0.91-0.909-0.243 0.91-0.241 0.243-0.909 0.241 0.91 0.909 0.243-0.91 0.241z">
            </path>
            <path fill="#fff" style="fill: var(--color1, #fff)"
                d="M38.203 15.608l-0.181-0.682-0.682-0.182 0.682-0.181 0.182-0.682 0.181 0.682 0.682 0.182-0.682 0.181z">
            </path>
            <path fill="#fff" style="fill: var(--color1, #fff)"
                d="M24.196 19.122l-0.181-0.683-0.682-0.182 0.683-0.181 0.182-0.682 0.181 0.683 0.682 0.182-0.683 0.181z">
            </path>
            <path fill="#fff" style="fill: var(--color1, #fff)"
                d="M29.976 6.050l-0.241-0.91-0.909-0.243 0.91-0.241 0.243-0.909 0.241 0.91 0.909 0.243-0.91 0.241z">
            </path>
            <path fill="#fff" style="fill: var(--color1, #fff)"
                d="M24.254 8.478l-0.241-0.91-0.909-0.243 0.91-0.241 0.243-0.909 0.241 0.91 0.909 0.243-0.91 0.241z">
            </path>
            <path fill="#fff" style="fill: var(--color1, #fff)"
                d="M28.095 6.746l-0.125-0.47-0.47-0.126 0.47-0.125 0.126-0.47 0.125 0.47 0.47 0.126-0.47 0.125z"></path>
            <path fill="#fff" style="fill: var(--color1, #fff)"
                d="M31.79 6.771l-0.125-0.47-0.47-0.126 0.47-0.125 0.126-0.47 0.125 0.47 0.47 0.126-0.47 0.125z"></path>
            <path fill="#fff" style="fill: var(--color1, #fff)"
                d="M31.26 10.5c-0.113 0.122-0.213 0.224-0.27 0.236s-0.072-0.068-0.084-0.193c-0.012-0.125-0.020-0.3 0.005-0.471s0.085-0.338 0.213-0.497c0.121-0.151 0.305-0.295 0.491-0.439 0.016-0.013 0.030-0.006 0.031 0.015 0.005 0.137 0.009 0.273 0.009 0.399 0 0.058-0.002 0.152-0.006 0.21-0.008 0.117-0.029 0.219-0.088 0.338-0.076 0.153-0.189 0.281-0.302 0.403z">
            </path>
            <path fill="#fff" style="fill: var(--color1, #fff)"
                d="M28.782 10.486c0.113 0.122 0.213 0.224 0.27 0.236s0.072-0.068 0.084-0.193c0.012-0.125 0.020-0.3-0.005-0.471s-0.085-0.338-0.213-0.497c-0.121-0.151-0.305-0.295-0.491-0.439-0.016-0.013-0.030-0.006-0.031 0.015-0.005 0.137-0.009 0.273-0.009 0.399 0 0.058 0.002 0.152 0.006 0.21 0.008 0.117 0.029 0.219 0.088 0.338 0.076 0.153 0.189 0.281 0.302 0.403z">
            </path>
            <path fill="#fff" style="fill: var(--color1, #fff)"
                d="M32.176 11.243c-0.146 0.079-0.273 0.144-0.331 0.136s-0.047-0.087-0.017-0.209c0.029-0.122 0.077-0.291 0.156-0.445s0.189-0.293 0.361-0.402c0.164-0.104 0.384-0.182 0.606-0.258 0.020-0.007 0.031 0.004 0.025 0.024-0.040 0.131-0.079 0.261-0.12 0.38-0.019 0.055-0.050 0.144-0.073 0.197-0.045 0.108-0.098 0.199-0.192 0.292-0.121 0.121-0.27 0.205-0.415 0.284z">
            </path>
            <path fill="#fff" style="fill: var(--color1, #fff)"
                d="M32.419 14.219c-0.165-0.015-0.308-0.023-0.358 0.006s-0.008 0.099 0.067 0.199c0.075 0.1 0.186 0.236 0.32 0.346s0.29 0.193 0.491 0.226c0.191 0.031 0.424 0.015 0.659-0.004 0.021-0.002 0.026-0.016 0.013-0.031-0.088-0.105-0.176-0.208-0.261-0.301-0.039-0.043-0.103-0.112-0.145-0.152-0.084-0.081-0.169-0.143-0.292-0.192-0.159-0.063-0.329-0.081-0.494-0.096z">
            </path>
            <path fill="#fff" style="fill: var(--color1, #fff)"
                d="M27.514 14.285c0.165-0.018 0.307-0.030 0.358-0.002s0.010 0.098-0.063 0.2c-0.073 0.102-0.181 0.24-0.312 0.353s-0.285 0.2-0.486 0.236c-0.191 0.035-0.424 0.024-0.659 0.011-0.021-0.001-0.027-0.015-0.014-0.031 0.086-0.106 0.172-0.212 0.254-0.307 0.038-0.044 0.101-0.114 0.142-0.155 0.083-0.083 0.166-0.147 0.288-0.198 0.158-0.066 0.327-0.088 0.492-0.107z">
            </path>
            <path fill="#fff" style="fill: var(--color1, #fff)"
                d="M31.566 15.269c-0.122-0.112-0.23-0.206-0.288-0.214s-0.067 0.073-0.068 0.198c-0.002 0.125 0.004 0.301 0.043 0.469s0.111 0.33 0.251 0.478c0.133 0.141 0.327 0.27 0.524 0.399 0.017 0.011 0.031 0.004 0.030-0.017-0.006-0.137-0.013-0.273-0.023-0.398-0.005-0.058-0.014-0.152-0.022-0.209-0.017-0.116-0.046-0.216-0.114-0.33-0.088-0.147-0.211-0.265-0.333-0.378z">
            </path>
            <path fill="#fff" style="fill: var(--color1, #fff)"
                d="M28.388 15.325c0.109-0.125 0.206-0.23 0.263-0.243s0.074 0.066 0.089 0.19c0.015 0.125 0.028 0.3 0.008 0.471s-0.076 0.34-0.199 0.502c-0.117 0.154-0.297 0.304-0.479 0.453-0.016 0.013-0.030 0.007-0.031-0.014-0.008-0.137-0.016-0.272-0.020-0.398-0.002-0.058-0.003-0.152-0-0.21 0.005-0.117 0.023-0.22 0.078-0.341 0.072-0.155 0.182-0.286 0.291-0.411z">
            </path>
            <path fill="#fff" style="fill: var(--color1, #fff)"
                d="M27.844 11.243c0.146 0.079 0.273 0.144 0.331 0.136s0.047-0.087 0.017-0.209c-0.029-0.122-0.077-0.291-0.156-0.445s-0.189-0.293-0.361-0.402c-0.164-0.104-0.384-0.182-0.606-0.258-0.020-0.007-0.031 0.004-0.025 0.024 0.040 0.131 0.079 0.261 0.12 0.38 0.019 0.055 0.050 0.144 0.073 0.197 0.045 0.108 0.098 0.199 0.192 0.292 0.121 0.121 0.27 0.205 0.415 0.284z">
            </path>
            <path fill="#fff" style="fill: var(--color1, #fff)"
                d="M29.843 11.258c-0.448 0.002-0.143 0.085-0.258 0.087-0.015 0 0.11 0.012 0 0.018l-0.21 0.048c-0.455 0.059-0.794 0.009-0.915 0.489-0.016 0.062-0.109 0.341-0.145 0.469-0.018 0.064-0.108 0.209-0.133 0.302s0.052 0.402 0.048 0.456c-0.007 0.089 0.043 0.168 0.123 0.328 0.042 0.085 0.047 0.301 0.093 0.416 0.023 0.057 0.186 0.093 0.209 0.136s0.103 0.156 0.137 0.177c0.068 0.041 0.231 0.213 0.41 0.289s0.377 0.13 0.599 0.145c0.114 0.007 0.482-0.012 0.627-0.035 0.073-0.011 0.259-0.094 0.314-0.107s0.253-0.154 0.281-0.17c0.035-0.020 0.096-0.156 0.147-0.196s0.305-0.197 0.327-0.261c0.013-0.039 0.249-0.297 0.24-0.339l-0.087-0.165c0.011-0.053 0.064-0.014 0.078-0.051-0.089-0.054-0.166-0.097-0.236-0.134 0.026 0.003 0.052 0.007 0.081 0.010 0.038-0.019 0.012-0.349 0.030-0.363l-0.049-0.218c0.019-0.014 0.023-0.040 0.009-0.059-0.008-0.011-0.087-0.17-0.157-0.303 0.013-0.12 0.006-0.256-0.072-0.344-0.128-0.065-0.135-0.25-0.272-0.287s-0.823-0.328-0.977-0.333c-0.098-0.004-0.177-0.005-0.241-0.005zM29.545 11.724c0.009-0.001 0.016 0.017 0.018 0.091 0.054 0.376 0.075 0.234 0.154 0.253 0.066 0.016 0.103 0.035 0.139 0.056l-0.072 0.037c-0.022-0.008-0.185 0.009-0.192 0.031-0.025 0.099-0.044 0.215-0.070 0.304l-0-0c-0.014-0.032-0.010-0.039-0.024-0.066l-0.024-0.18c-0.002-0.018-0.008-0.032-0.017-0.042 0-0 0-0 0-0 0.006-0.041-0.382-0.082-0.344-0.095s0.12-0.008 0.147-0.028c0.046-0.033 0.189 0.001 0.2-0.039 0.052-0.185 0.063-0.263 0.061-0.295 0.008-0.008 0.017-0.024 0.025-0.025zM30.418 12.085c0.008 0.001 0.016 0.002 0.024 0.004 0.125 0.033 0.431 0.11 0.559 0.174 0.012 0.006 0.128 0.083 0.224 0.141-0.042 0.030-0.086 0.068-0.104 0.077-0.037 0.019-0.291 0.090-0.34 0.112-0.097 0.045-0.268 0.187-0.318 0.272-0.024 0.041-0.042 0.155-0.059 0.199s-0.041 0.247-0.035 0.303c0.019 0.188 0.017 0.101 0.040 0.245-0.019-0.005-0.041-0.007-0.067-0.006-0.025 0.004-0.053 0.004-0.083 0.003 0.016-0.007 0.027-0.015 0.023-0.020-0.021-0.029-0.058-0.037-0.068-0.052-0.021-0.029-0.031-0.044-0.038-0.054 0.003 0.009-0.005 0.012-0.058-0.031-0.035-0.028-0.052-0.049-0.076-0.072-0.050-0.048-0.063-0.096-0.088-0.126-0.015-0.018-0.077-0.1-0.098-0.113s-0.054-0.127-0.080-0.141c-0.003-0.002-0.006-0.003-0.010-0.005 0.010-0.032-0.004-0.101-0.006-0.166-0.003-0.171 0.177-0.496 0.289-0.628 0.117 0.005 0.259-0.124 0.37-0.117zM30.176 13.484c-0.003-0.009-0.014-0.022 0 0zM29.105 12.627c0.001 0.010 0.002 0.018 0.003 0.020 0.014 0.029 0.012 0.109 0.026 0.164 0.036 0.141 0.18 0.090 0.18 0.090 0.010 0 0.034 0.013 0.062 0.028-0.082 0.007-0.213 0.025-0.223 0.045-0.026 0.050-0.046 0.161-0.070 0.212-0.005-0.032-0.012-0.071-0.015-0.088-0.027-0.148-0.014-0.107-0.094-0.126-0.148-0.033-0.134-0.075 0.045-0.098 0.030-0.004 0.070-0.137 0.087-0.247zM29.633 13.383c0.006 0 0.011 0.019 0.021 0.056 0.013 0.050-0.018 0.102 0.027 0.115 0.069 0.021 0.166 0.044 0.205 0.053-0.064 0.009-0.132 0.026-0.204 0.055-0.066 0.027-0.029 0.213-0.058 0.173-0.040-0.056-0.012-0.032-0.029-0.139-0.008-0.051 0.027-0.045-0.243-0.094 0.013-0.007 0.028-0.012 0.046-0.014 0.091-0.011 0.192-0.024 0.197-0.047 0.022-0.106 0.030-0.158 0.039-0.157zM29.818 13.588c0.003-0.001 0.042 0.007 0.090 0.016-0.007 0.001-0.013 0.001-0.020 0.002-0.006-0.002-0.011-0.003-0.020-0.005-0.037-0.009-0.051-0.013-0.049-0.014z">
            </path>
        </symbol>
        <symbol id="burger-menu" viewBox="0 0 32 32">
            <path
                d="M2.666 8c0-0.354 0.14-0.693 0.391-0.943s0.589-0.391 0.943-0.391h24c0.354 0 0.693 0.14 0.943 0.391s0.39 0.589 0.39 0.943c0 0.354-0.14 0.693-0.39 0.943s-0.589 0.391-0.943 0.391h-24c-0.354 0-0.693-0.14-0.943-0.391s-0.391-0.589-0.391-0.943zM2.666 16.043c0-0.354 0.14-0.693 0.391-0.943s0.589-0.39 0.943-0.39h24c0.354 0 0.693 0.14 0.943 0.39s0.39 0.589 0.39 0.943c0 0.354-0.14 0.693-0.39 0.943s-0.589 0.39-0.943 0.39h-24c-0.354 0-0.693-0.14-0.943-0.39s-0.391-0.589-0.391-0.943zM4 22.752c-0.354 0-0.693 0.141-0.943 0.39s-0.391 0.589-0.391 0.943 0.14 0.693 0.391 0.943c0.25 0.25 0.589 0.39 0.943 0.39h24c0.354 0 0.693-0.14 0.943-0.39s0.39-0.589 0.39-0.943c0-0.354-0.14-0.693-0.39-0.943s-0.589-0.39-0.943-0.39h-24z">
            </path>
        </symbol>
    </defs>
</svg>